<svg version="1.1"
      xmlns="http://www.w3.org/2000/svg"
      xmlns:xlink="http://www.w3.org/1999/xlink"  id="snapshot-11716" width="250" height="250" viewBox="0 0 250 250"><desc>This image was made on Patterninja.com</desc><defs>
<!-- image 32782 -->
<g id="transformed-32782" data-image="32782" transform="translate(-50.48277447811541, -119.06314735404575) rotate(30, 50.48277447811541, 119.06314735404575)"><g><svg version="1.1" width="100.96554895623082px" height="238.1262947080915px" viewBox="0 0 100.96554895623082 238.1262947080915"><g id="original-32782"><svg xmlns="http://www.w3.org/2000/svg" fill="none" viewBox="0 0 445 1048" xmlns:xlink="http://www.w3.org/1999/xlink" version="1.1" preserveAspectRatio="xMidYMid meet">
  <path d="M241.35 22l-16.4 22.133V470.8h-34.133c-26.8 0-33.867-.4-33.067-1.733.533-.8 7.2-11.2 14.8-22.8l13.733-21.2V458.8h29.334V261.467c0-108.534-.267-197.334-.667-197.334s-6.933 8.534-14.667 18.934l-14 18.933v169.2L93.617 420.4C42.55 502.4.55 570.4.017 571.467c-.534 1.733 11.466 2 92.133 2h92.8l.267 236.933.4 236.8 15.733-26.8 15.6-26.933v-420h66.666l-12.8 20.933c-7.066 11.6-13.333 21.6-14 22.4-.666.667-1.199-6.533-1.199-18.4v-19.733l-16.267.4-16.4.4-.4 202.666c-.267 171.067 0 202.267 1.6 200.667.933-1.067 8.4-12.933 16.667-26.267l14.8-24.133V779.467L350.283 624.8l94.533-154.667-93.2-.4-93.333-.266-.266-234.8L257.617 0 241.35 22z" clip-path="url(#a)" fill="rgba(234, 167, 42, 0.3)" stroke="none"/>
  <path d="M351.35 5.467c-1.2 1.866-21.467 33.866-44.934 71.333l-42.8 68v144l45.334-68 45.333-68-.267-75.333c-.4-71.067-.533-75.2-2.666-72z" clip-path="url(#a)" fill="rgba(234, 167, 42, 0.3)" stroke="none"/>
  <path d="M172.417 764.133c-2.134 3.334-22.4 35.067-45.067 70.4l-41.067 64.534.267 72.133.4 72.13 42.133-67.997c23.2-37.333 43.467-70 45.067-72.666 2.8-4.8 2.8-5.6 2.533-74.667l-.4-69.867-3.866 6z" clip-path="url(#a)" fill="rgba(234, 167, 42, 0.3)" stroke="none"/>
  <defs>
    <clipPath id="a">
      <path d="M0 0h445v1048H0z" fill="rgba(255, 255, 255, 1)" stroke="none"/>
    </clipPath>
  </defs>
</svg>
</g></svg></g></g>
<!-- /image 32782 -->
</defs><rect x="0" y="0" width="250" height="250" fill="rgba(0, 0, 0, 1)"></rect><use xlink:href="#transformed-32782" transform="translate(-250, -250)"></use><use xlink:href="#transformed-32782" transform="translate(0, -250)"></use><use xlink:href="#transformed-32782" transform="translate(250, -250)"></use><use xlink:href="#transformed-32782" transform="translate(-250, 0)"></use><use xlink:href="#transformed-32782" transform="translate(0, 0)"></use><use xlink:href="#transformed-32782" transform="translate(250, 0)"></use><use xlink:href="#transformed-32782" transform="translate(-250, 250)"></use><use xlink:href="#transformed-32782" transform="translate(0, 250)"></use><use xlink:href="#transformed-32782" transform="translate(250, 250)"></use></svg>